<svg class="auth-module--vector-bottom-right--3DMIK" width="304" height="493" viewBox="0 0 304 493" fill="none"><path d="M3.7576e-06 177.766L1.22256e-06 390.35C1.20488e-06 391.833 0.820493 393.194 2.13181 393.887L188.647 492.403C191.311 493.81 194.515 491.879 194.515 488.866L194.515 180.176C194.515 178.694 193.695 177.333 192.385 176.64L5.86913 78.0601C3.20523 76.6521 4.94034e-06 78.5834 4.90441e-06 81.5965L3.7576e-06 177.766Z" fill="#003AAF"></path><path fill-rule="evenodd" clip-rule="evenodd" d="M129.142 108.843C127.825 108.152 127 106.788 127 105.301L127 33.0803L127 4.00552C127 0.997467 130.196 -0.934235 132.859 0.463745L192.859 31.9565C194.175 32.6475 195 34.0116 195 35.4983L195 136.773C195 139.781 191.805 141.713 189.142 140.316L129.142 108.843ZM223.485 236.594C222.173 235.902 221.352 234.54 221.352 233.056L221.352 144.526L221.352 107.673C221.352 104.661 224.555 102.729 227.219 104.135L301.611 143.4C302.923 144.093 303.744 145.455 303.744 146.938L303.744 272.296C303.744 275.308 300.542 277.239 297.878 275.834L223.485 236.594Z" fill="#003AAF"></path></svg>