<svg xmlns="http://www.w3.org/2000/svg" width="300" height="300" version="1.1">
  <path d="M-9.96161e-06 71.9718L-3.24971e-06 225.522C-3.1847e-06 227.009 0.825095 228.374 2.14215 229.065L136.259 299.404C138.922 300.801 142.117 298.869 142.117 295.861L142.117 74.3899C142.117 72.9031 141.292 71.539 139.975 70.8481L5.85877 0.463562C3.19531 -0.934204 -1.3064e-05 0.997498 -1.29325e-05 4.00546L-9.96161e-06 71.9718Z" fill="#FFB91D"></path><path d="M166.873 60.174L166.873 129.227C166.873 130.711 167.695 132.073 169.007 132.765L225.754 162.697C228.417 164.102 231.62 162.171 231.62 159.159L231.62 62.5857C231.62 61.1023 230.799 59.7407 229.487 59.0482L172.74 29.0968C170.077 27.6907 166.873 29.6221 166.873 32.6342L166.873 60.174Z" fill="#FFD766"></path>
</svg>