<svg class="auth-module--vector-bottom-left--2bVNX" width="290" height="415" viewBox="0 0 290 415" fill="none"><path d="M33 139.985L33 323.644C33 325.136 33.8306 326.504 35.1545 327.193L198.154 411.96C200.817 413.345 204 411.413 204 408.411L204 142.413C204 140.921 203.17 139.553 201.846 138.864L38.8465 54.0424C36.1836 52.6567 33 54.5888 33 57.5907L33 139.985Z" fill="#B6D2FF"></path><path d="M3.32729e-06 88.985L1.10536e-06 272.637C1.08726e-06 274.133 0.834371 275.504 2.16293 276.191L166.163 360.982C168.825 362.359 172 360.426 172 357.429L172 91.4192C172 89.924 171.166 88.5535 169.838 87.8665L5.83802 3.02032C3.17555 1.64288 4.36063e-06 3.57535 4.32436e-06 6.57303L3.32729e-06 88.985Z" fill="url(#pattern0)"></path><path d="M228 254.538L228 313.784C228 315.327 228.887 316.732 230.28 317.395L284.28 343.106C286.935 344.37 290 342.434 290 339.494L290 257.063C290 255.521 289.113 254.116 287.72 253.452L233.72 227.725C231.066 226.461 228 228.396 228 231.336L228 254.538Z" fill="#B6D2FF"></path><defs><pattern id="pattern0" patternContentUnits="objectBoundingBox" width="1" height="1"><use xlink:href="#image0" transform="translate(1.09951 -0.295175) scale(0.00119664 0.00253243) rotate(90)"></use></pattern></defs></svg>