<svg class="auth-module--vector-top-right--BY7c3" width="224" height="454" viewBox="0 0 224 454" fill="none"><path d="M31 167.652L31 358.999C31 360.481 31.8194 361.841 33.1293 362.534L200.129 450.894C202.793 452.303 206 450.372 206 447.358L206 170.06C206 168.579 205.181 167.218 203.872 166.525L36.8716 78.1087C34.2076 76.6982 31 78.6294 31 81.6438L31 167.652Z" fill="#003AAF"></path><path d="M3.41467e-06 103.652L1.11852e-06 296.203C1.10968e-06 296.944 0.409691 297.624 1.06466 297.971L172.065 388.447C173.397 389.152 175 388.186 175 386.679L175 104.856C175 104.115 174.591 103.435 173.936 103.089L2.93582 12.5543C1.60382 11.8491 4.49789e-06 12.8147 4.47992e-06 14.3219L3.41467e-06 103.652Z" fill="url(#pattern0)"></path><path d="M158 -12.2246L158 58.0861C158 59.57 158.821 60.9319 160.134 61.6241L218.02 92.1574C220.684 93.5625 223.886 91.631 223.886 88.6194L223.886 -9.81282C223.886 -11.2962 223.065 -12.6579 221.753 -13.3503L163.867 -43.9032C161.203 -45.3092 158 -43.3779 158 -40.3658L158 -12.2246Z" fill="#003AAF"></path><defs><pattern id="pattern0" patternContentUnits="objectBoundingBox" width="1" height="1"><use xlink:href="#image0" transform="translate(1.00899 -0.868968) scale(0.00236298 0.00511753) rotate(90)"></use></pattern></defs></svg>