<svg xmlns="http://www.w3.org/2000/svg" width="300" height="300" version="1.1">
<path d="M34.2736 9.61767V18.9976L41.7587 9.16639V0L34.2736 9.61767Z" fill="#003AAF"></path><path d="M34.2735 0H14.9654L7.48511 9.61767H34.2735L41.7587 0H34.2735Z" fill="#0056FB"></path><path d="M26.7885 28.6201V38L34.2736 28.1688V18.9976L26.7885 28.6201Z" fill="#003AAF"></path><path d="M26.7884 18.9976H7.48515L0 28.6201H26.7884L34.2736 18.9976H26.7884Z" fill="#0056FB"></path><path d="M65.7276 13.4075L62.4839 14.4119C62.345 13.7246 61.9981 13.0974 61.491 12.6165C61.1649 12.3234 60.7833 12.0996 60.3692 11.9587C59.9551 11.8178 59.5169 11.7626 59.0811 11.7964C58.3224 11.7639 57.5782 12.0125 56.9893 12.4952C56.7369 12.6943 56.5325 12.9483 56.3914 13.2383C56.2504 13.5282 56.1763 13.8465 56.1748 14.1693C56.1748 15.3145 56.8495 16.0133 58.1942 16.2802L60.7825 16.7654C62.2375 16.9828 63.5808 17.6769 64.6046 18.7404C65.4965 19.6956 65.9855 20.962 65.9686 22.273C65.9683 23.0392 65.8056 23.7966 65.4914 24.4945C65.1773 25.1923 64.7188 25.8147 64.1467 26.32C62.9385 27.4717 61.311 28.0459 59.2642 28.0426C58.1862 28.0576 57.1141 27.8801 56.0976 27.5186C55.2451 27.2226 54.4682 26.7404 53.8227 26.1065C53.2761 25.5608 52.8204 24.9299 52.4731 24.2383C52.1551 23.5991 51.9559 22.9067 51.8851 22.1954L55.259 21.2977C55.3302 22.2409 55.7457 23.1242 56.4254 23.7773C56.8185 24.1271 57.2762 24.3955 57.7725 24.567C58.2687 24.7385 58.7936 24.8098 59.3173 24.7769C60.1042 24.8235 60.8837 24.6012 61.5295 24.1461C61.7837 23.9531 61.9884 23.7019 62.1268 23.4132C62.2651 23.1246 62.333 22.8069 62.3248 22.4865C62.327 22.2233 62.276 21.9624 62.1749 21.7196C62.0739 21.4769 61.9248 21.2574 61.7368 21.0744C61.2748 20.6457 60.6954 20.3667 60.074 20.2738L57.4857 19.7449C56.1337 19.5091 54.8885 18.8543 53.9239 17.8718C53.4893 17.4078 53.1499 16.8621 52.9249 16.266C52.7 15.6698 52.594 15.0348 52.6129 14.3974C52.6019 13.6042 52.7666 12.8185 53.0951 12.0975C53.4236 11.3764 53.9076 10.7381 54.5119 10.2291C55.7711 9.11031 57.4021 8.50924 59.0811 8.54526C60.0504 8.53089 61.0151 8.68183 61.9344 8.99169C62.6846 9.23882 63.3722 9.64786 63.9491 10.1903C64.8574 11.0464 65.4789 12.1655 65.7276 13.3929V13.4075Z" fill="black"></path><path d="M73.2175 10.7968V14.6789H75.8058V17.7893H73.2175V23.2144C73.1967 23.4227 73.2185 23.633 73.2815 23.8324C73.3445 24.0319 73.4474 24.2163 73.5838 24.3742C73.9115 24.6296 74.323 24.7509 74.7358 24.7138C75.0956 24.7268 75.4555 24.6909 75.8058 24.6071V27.5186C75.178 27.7492 74.512 27.8563 73.8441 27.834C73.3014 27.8637 72.7582 27.7846 72.2461 27.6014C71.7339 27.4181 71.263 27.1343 70.8607 26.7665C70.484 26.3805 70.1917 25.9195 70.0025 25.4131C69.8133 24.9067 69.7313 24.366 69.7617 23.8258V17.7845H67.429V14.674H68.0844C68.3571 14.6921 68.6305 14.6508 68.8859 14.5528C69.1412 14.4548 69.3726 14.3025 69.5641 14.1063C69.9178 13.6939 70.1006 13.1607 70.075 12.6165V10.7968H73.2175Z" fill="black"></path><path d="M87.6383 26.0337V25.8736C87.3514 26.5165 86.8753 27.0551 86.2743 27.4167C85.6024 27.8173 84.8332 28.0223 84.0524 28.0087C83.1983 28.0409 82.3476 27.8838 81.5606 27.5484C80.7735 27.2129 80.0692 26.7075 79.4977 26.0677C78.3074 24.7072 77.6797 22.9396 77.7433 21.1278C77.6862 19.3485 78.303 17.6139 79.4688 16.2753C80.0271 15.6397 80.7179 15.1362 81.4919 14.8006C82.266 14.4651 83.1041 14.3058 83.9464 14.3343C84.8099 14.2894 85.6671 14.5039 86.4093 14.9506C86.9378 15.278 87.3638 15.7489 87.6383 16.3093V14.674H91.0122V25.2961C91.0122 26.0871 91.0507 26.8683 91.1182 27.6399H87.7926C87.6946 27.1101 87.643 26.5726 87.6383 26.0337ZM82.1293 18.3473C81.4954 19.1193 81.1736 20.1034 81.228 21.1036C81.1786 22.1179 81.4992 23.1153 82.1293 23.9083C82.409 24.2528 82.7634 24.5281 83.1653 24.7132C83.5672 24.8982 84.0059 24.9881 84.4476 24.9759C84.8828 24.9858 85.3144 24.8946 85.7089 24.7095C86.1034 24.5243 86.4503 24.2502 86.7226 23.9083C87.3453 23.1119 87.6619 22.116 87.6142 21.1036C87.6725 20.1101 87.3673 19.1296 86.7563 18.3473C86.4744 18.0165 86.1224 17.7537 85.7261 17.5782C85.3299 17.4026 84.8996 17.3189 84.4669 17.3332C84.027 17.3178 83.5893 17.4008 83.1851 17.5762C82.7809 17.7515 82.4203 18.0149 82.1293 18.3473Z" fill="black"></path><path d="M93.7113 28.3532L96.8779 27.5089C96.9756 28.1959 97.3182 28.8238 97.8419 29.2752C98.4113 29.7406 99.1283 29.9835 99.8614 29.9594C102.146 29.9594 103.288 28.756 103.288 26.3491V25.3786C102.949 25.8906 102.48 26.3012 101.929 26.5675C101.236 26.9061 100.472 27.0725 99.7023 27.0527C98.9061 27.0721 98.1147 26.9233 97.3791 26.6157C96.6436 26.3081 95.9802 25.8487 95.432 25.267C94.8629 24.668 94.4181 23.9608 94.1235 23.1868C93.8289 22.4128 93.6904 21.5875 93.7161 20.759C93.6847 19.0977 94.3006 17.4899 95.432 16.2802C95.9749 15.6812 96.6393 15.2065 97.3802 14.8884C98.1211 14.5703 98.9212 14.4161 99.7264 14.4362C100.542 14.4068 101.353 14.5836 102.083 14.9506C102.638 15.2206 103.094 15.6583 103.389 16.2025V14.674H106.763V26.2424C106.823 28.0135 106.225 29.7435 105.086 31.0949C103.968 32.3889 102.274 33.0359 100.006 33.0359C98.4744 33.0883 96.9722 32.6047 95.7549 31.6675C94.6663 30.8772 93.9318 29.686 93.7113 28.3532ZM100.31 24.0539C100.715 24.0677 101.12 23.9954 101.496 23.8415C101.872 23.6877 102.212 23.4558 102.493 23.161C102.785 22.8369 103.011 22.4579 103.158 22.0457C103.304 21.6335 103.368 21.1962 103.346 20.759C103.365 20.3253 103.297 19.8921 103.147 19.4852C102.996 19.0784 102.765 18.7063 102.469 18.391C102.19 18.0996 101.854 17.8694 101.482 17.7149C101.111 17.5604 100.712 17.485 100.31 17.4933C99.8993 17.4811 99.4909 17.5546 99.1102 17.7091C98.7294 17.8636 98.3846 18.0957 98.0973 18.391C97.8008 18.7063 97.5704 19.0784 97.4197 19.4852C97.269 19.8921 97.2011 20.3253 97.2201 20.759C97.1987 21.197 97.2639 21.6348 97.412 22.0472C97.5602 22.4595 97.7882 22.8381 98.0829 23.161C98.3722 23.4572 98.7196 23.6896 99.1029 23.8433C99.4863 23.997 99.8972 24.0687 100.31 24.0539Z" fill="black"></path><path d="M118.895 23.0543L121.787 23.9229C121.442 25.1065 120.721 26.1433 119.733 26.8732C118.626 27.6748 117.284 28.0828 115.921 28.0329C115.051 28.051 114.186 27.8938 113.378 27.5704C112.569 27.2471 111.833 26.7642 111.212 26.1502C109.927 24.8918 109.284 23.2096 109.284 21.1036C109.251 20.1984 109.4 19.2958 109.724 18.4507C110.048 17.6056 110.54 16.8358 111.169 16.188C111.741 15.5795 112.431 15.0958 113.196 14.7669C113.961 14.438 114.785 14.2709 115.617 14.2761C117.61 14.2761 119.168 14.8746 120.293 16.0715C121.417 17.2685 121.979 18.9102 121.979 20.9968C121.979 21.1375 121.979 21.2977 121.979 21.4821C121.979 21.6665 121.979 21.7975 121.979 21.9042L121.951 22.0886H112.716C112.725 22.4907 112.819 22.8862 112.991 23.2492C113.163 23.6122 113.409 23.9344 113.714 24.1946C114.33 24.7535 115.135 25.0554 115.964 25.0389C117.444 25.0292 118.422 24.3742 118.895 23.0543ZM112.783 19.6818H118.567C118.551 18.9982 118.275 18.3468 117.796 17.8621C117.511 17.5998 117.176 17.399 116.811 17.2722C116.447 17.1453 116.06 17.0951 115.675 17.1245C115.299 17.1091 114.924 17.1714 114.572 17.3074C114.221 17.4434 113.901 17.6503 113.632 17.9155C113.135 18.3736 112.832 19.0055 112.783 19.6818Z" fill="black"></path><path d="M123.633 24.0296L126.616 23.3697C126.629 23.6381 126.695 23.9013 126.81 24.1437C126.925 24.3862 127.087 24.6031 127.286 24.7818C127.757 25.1789 128.36 25.3802 128.973 25.3446C129.422 25.3733 129.867 25.2429 130.231 24.9759C130.371 24.8671 130.483 24.7273 130.56 24.5673C130.637 24.4073 130.676 24.2316 130.674 24.0539C130.674 23.4036 130.192 22.9863 129.286 22.7922L127.585 22.3943C126.554 22.2249 125.604 21.7265 124.876 20.9725C124.285 20.3058 123.963 19.4401 123.975 18.5463C123.968 17.9722 124.087 17.4038 124.325 16.8818C124.562 16.3599 124.912 15.8975 125.348 15.528C126.296 14.687 127.527 14.2426 128.79 14.2858C129.574 14.2725 130.355 14.4024 131.094 14.6691C131.674 14.8716 132.201 15.2033 132.636 15.6396C132.975 15.9936 133.258 16.3978 133.475 16.8382C133.657 17.213 133.781 17.6141 133.841 18.0271L130.949 18.6821C130.876 18.2202 130.656 17.7946 130.322 17.469C130.12 17.2817 129.882 17.1382 129.623 17.0472C129.363 16.9562 129.088 16.9198 128.814 16.9401C128.396 16.928 127.987 17.0579 127.652 17.3089C127.504 17.4118 127.382 17.5495 127.298 17.7101C127.214 17.8707 127.171 18.0494 127.17 18.2309C127.17 18.8617 127.566 19.2499 128.351 19.3906L130.183 19.7837C131.255 19.9644 132.246 20.4726 133.022 21.2394C133.664 21.9237 134.012 22.8358 133.99 23.7773C133.993 24.3425 133.878 24.9021 133.652 25.4196C133.427 25.9371 133.095 26.401 132.679 26.781C131.807 27.6253 130.578 28.0426 128.992 28.0426C128.161 28.0561 127.335 27.918 126.553 27.635C125.926 27.4202 125.358 27.0594 124.895 26.582C124.533 26.2012 124.232 25.7657 124.004 25.2913C123.816 24.8927 123.69 24.467 123.633 24.0296Z" fill="black"></path>
</svg>